<mxfile host="Electron" agent="Mozilla/5.0 (Windows NT 10.0; Win64; x64) AppleWebKit/537.36 (KHTML, like Gecko) draw.io/28.0.6 Chrome/138.0.7204.100 Electron/37.2.3 Safari/537.36" version="28.0.6">
  <diagram name="Page-1" id="b2kekK9_2jWySMDAzPlP">
    <mxGraphModel dx="1188" dy="741" grid="1" gridSize="10" guides="1" tooltips="1" connect="1" arrows="1" fold="1" page="1" pageScale="1" pageWidth="850" pageHeight="1100" math="0" shadow="0">
      <root>
        <mxCell id="0" />
        <mxCell id="1" parent="0" />
        <mxCell id="WbQk5H_e2WWCLxe1NhMA-1" value="" style="rounded=0;whiteSpace=wrap;html=1;fillColor=none;strokeColor=light-dark(#8a8a8a, #ededed);dashed=1;" parent="1" vertex="1">
          <mxGeometry x="24" y="170" width="140" height="430" as="geometry" />
        </mxCell>
        <mxCell id="WbQk5H_e2WWCLxe1NhMA-2" value="Sources" style="rounded=0;whiteSpace=wrap;html=1;strokeColor=none;fontSize=15;fontStyle=1" parent="1" vertex="1">
          <mxGeometry x="64.5" y="150" width="60" height="40" as="geometry" />
        </mxCell>
        <mxCell id="WbQk5H_e2WWCLxe1NhMA-4" value="" style="rounded=1;whiteSpace=wrap;html=1;fillColor=default;strokeColor=#d79b00;dashed=1;fillStyle=hatch;" parent="1" vertex="1">
          <mxGeometry x="224" y="200" width="160" height="400" as="geometry" />
        </mxCell>
        <mxCell id="WbQk5H_e2WWCLxe1NhMA-5" value="Bronze Layer" style="rounded=1;whiteSpace=wrap;html=1;strokeColor=#d79b00;fontSize=15;fontStyle=1;fillColor=#ffe6cc;" parent="1" vertex="1">
          <mxGeometry x="224" y="150" width="160" height="40" as="geometry" />
        </mxCell>
        <mxCell id="WbQk5H_e2WWCLxe1NhMA-8" value="" style="rounded=1;whiteSpace=wrap;html=1;fillColor=default;strokeColor=#d6b656;dashed=1;fillStyle=hatch;" parent="1" vertex="1">
          <mxGeometry x="664" y="200" width="160" height="400" as="geometry" />
        </mxCell>
        <mxCell id="WbQk5H_e2WWCLxe1NhMA-9" value="Gold Layer" style="rounded=1;whiteSpace=wrap;html=1;strokeColor=#d6b656;fontSize=15;fontStyle=1;fillColor=#fff2cc;" parent="1" vertex="1">
          <mxGeometry x="664" y="150" width="160" height="40" as="geometry" />
        </mxCell>
        <mxCell id="WbQk5H_e2WWCLxe1NhMA-18" style="edgeStyle=orthogonalEdgeStyle;rounded=0;orthogonalLoop=1;jettySize=auto;html=1;entryX=0;entryY=0.5;entryDx=0;entryDy=0;" parent="1" source="WbQk5H_e2WWCLxe1NhMA-10" target="WbQk5H_e2WWCLxe1NhMA-12" edge="1">
          <mxGeometry relative="1" as="geometry" />
        </mxCell>
        <mxCell id="WbQk5H_e2WWCLxe1NhMA-20" style="edgeStyle=orthogonalEdgeStyle;rounded=0;orthogonalLoop=1;jettySize=auto;html=1;entryX=0;entryY=0.5;entryDx=0;entryDy=0;" parent="1" source="WbQk5H_e2WWCLxe1NhMA-10" target="WbQk5H_e2WWCLxe1NhMA-14" edge="1">
          <mxGeometry relative="1" as="geometry" />
        </mxCell>
        <mxCell id="WbQk5H_e2WWCLxe1NhMA-21" style="edgeStyle=orthogonalEdgeStyle;rounded=0;orthogonalLoop=1;jettySize=auto;html=1;entryX=0;entryY=0.5;entryDx=0;entryDy=0;" parent="1" source="WbQk5H_e2WWCLxe1NhMA-10" target="WbQk5H_e2WWCLxe1NhMA-13" edge="1">
          <mxGeometry relative="1" as="geometry" />
        </mxCell>
        <mxCell id="WbQk5H_e2WWCLxe1NhMA-10" value="CRM&lt;span style=&quot;color: rgba(0, 0, 0, 0); font-family: monospace; font-size: 0px; text-align: start; background-color: rgb(236, 236, 236);&quot;&gt;%3CmxGraphModel%3E%3Croot%3E%3CmxCell%20id%3D%220%22%2F%3E%3CmxCell%20id%3D%221%22%20parent%3D%220%22%2F%3E%3CmxCell%20id%3D%222%22%20value%3D%22%22%20style%3D%22rounded%3D0%3BwhiteSpace%3Dwrap%3Bhtml%3D1%3BfillColor%3Dnone%3BstrokeColor%3Dlight-dark(%238a8a8a%2C%20%23ededed)%3Bdashed%3D1%3B%22%20vertex%3D%221%22%20parent%3D%221%22%3E%3CmxGeometry%20x%3D%22240%22%20y%3D%22200%22%20width%3D%22160%22%20height%3D%22400%22%20as%3D%22geometry%22%2F%3E%3C%2FmxCell%3E%3CmxCell%20id%3D%223%22%20value%3D%22Bronze%20Layer%22%20style%3D%22rounded%3D0%3BwhiteSpace%3Dwrap%3Bhtml%3D1%3BstrokeColor%3Dnone%3BfontSize%3D15%3BfontStyle%3D1%22%20vertex%3D%221%22%20parent%3D%221%22%3E%3CmxGeometry%20x%3D%22270%22%20y%3D%22180%22%20width%3D%22100%22%20height%3D%2240%22%20as%3D%22geometry%22%2F%3E%3C%2FmxCell%3E%3C%2Froot%3E%3C%2FmxGraphModel%3E&lt;/span&gt;" style="image;aspect=fixed;html=1;points=[];align=center;fontSize=12;image=img/lib/azure2/general/Folder_Blank.svg;" parent="1" vertex="1">
          <mxGeometry x="60" y="288" width="69" height="56.00000000000001" as="geometry" />
        </mxCell>
        <mxCell id="WbQk5H_e2WWCLxe1NhMA-22" style="edgeStyle=orthogonalEdgeStyle;rounded=0;orthogonalLoop=1;jettySize=auto;html=1;entryX=0;entryY=0.5;entryDx=0;entryDy=0;" parent="1" source="WbQk5H_e2WWCLxe1NhMA-11" target="WbQk5H_e2WWCLxe1NhMA-15" edge="1">
          <mxGeometry relative="1" as="geometry" />
        </mxCell>
        <mxCell id="WbQk5H_e2WWCLxe1NhMA-23" style="edgeStyle=orthogonalEdgeStyle;rounded=0;orthogonalLoop=1;jettySize=auto;html=1;entryX=0;entryY=0.5;entryDx=0;entryDy=0;" parent="1" source="WbQk5H_e2WWCLxe1NhMA-11" target="WbQk5H_e2WWCLxe1NhMA-16" edge="1">
          <mxGeometry relative="1" as="geometry" />
        </mxCell>
        <mxCell id="WbQk5H_e2WWCLxe1NhMA-24" style="edgeStyle=orthogonalEdgeStyle;rounded=0;orthogonalLoop=1;jettySize=auto;html=1;entryX=0;entryY=0.5;entryDx=0;entryDy=0;" parent="1" source="WbQk5H_e2WWCLxe1NhMA-11" target="WbQk5H_e2WWCLxe1NhMA-17" edge="1">
          <mxGeometry relative="1" as="geometry" />
        </mxCell>
        <mxCell id="WbQk5H_e2WWCLxe1NhMA-11" value="ERP" style="image;aspect=fixed;html=1;points=[];align=center;fontSize=12;image=img/lib/azure2/general/Folder_Blank.svg;" parent="1" vertex="1">
          <mxGeometry x="59.5" y="472" width="69" height="56.00000000000001" as="geometry" />
        </mxCell>
        <mxCell id="e1Ec5Xwr15tqVegTzRyW-9" style="edgeStyle=orthogonalEdgeStyle;rounded=0;orthogonalLoop=1;jettySize=auto;html=1;exitX=1;exitY=0.5;exitDx=0;exitDy=0;entryX=0;entryY=0.5;entryDx=0;entryDy=0;" parent="1" source="WbQk5H_e2WWCLxe1NhMA-12" target="e1Ec5Xwr15tqVegTzRyW-3" edge="1">
          <mxGeometry relative="1" as="geometry" />
        </mxCell>
        <mxCell id="WbQk5H_e2WWCLxe1NhMA-12" value="crm_cust_info" style="rounded=0;whiteSpace=wrap;html=1;strokeColor=#d79b00;fontSize=15;fontStyle=1;fillColor=#ffe6cc;" parent="1" vertex="1">
          <mxGeometry x="234" y="240" width="140" height="40" as="geometry" />
        </mxCell>
        <mxCell id="e1Ec5Xwr15tqVegTzRyW-10" style="edgeStyle=orthogonalEdgeStyle;rounded=0;orthogonalLoop=1;jettySize=auto;html=1;exitX=1;exitY=0.5;exitDx=0;exitDy=0;entryX=0;entryY=0.5;entryDx=0;entryDy=0;" parent="1" source="WbQk5H_e2WWCLxe1NhMA-13" target="e1Ec5Xwr15tqVegTzRyW-4" edge="1">
          <mxGeometry relative="1" as="geometry" />
        </mxCell>
        <mxCell id="WbQk5H_e2WWCLxe1NhMA-13" value="crm_prd_info" style="rounded=0;whiteSpace=wrap;html=1;strokeColor=#d79b00;fontSize=15;fontStyle=1;fillColor=#ffe6cc;" parent="1" vertex="1">
          <mxGeometry x="234" y="296" width="140" height="40" as="geometry" />
        </mxCell>
        <mxCell id="e1Ec5Xwr15tqVegTzRyW-11" style="edgeStyle=orthogonalEdgeStyle;rounded=0;orthogonalLoop=1;jettySize=auto;html=1;exitX=1;exitY=0.5;exitDx=0;exitDy=0;entryX=0;entryY=0.5;entryDx=0;entryDy=0;" parent="1" source="WbQk5H_e2WWCLxe1NhMA-14" target="e1Ec5Xwr15tqVegTzRyW-5" edge="1">
          <mxGeometry relative="1" as="geometry" />
        </mxCell>
        <mxCell id="WbQk5H_e2WWCLxe1NhMA-14" value="crm_sales_details" style="rounded=0;whiteSpace=wrap;html=1;strokeColor=#d79b00;fontSize=15;fontStyle=1;fillColor=#ffe6cc;" parent="1" vertex="1">
          <mxGeometry x="234" y="360" width="140" height="40" as="geometry" />
        </mxCell>
        <mxCell id="e1Ec5Xwr15tqVegTzRyW-12" style="edgeStyle=orthogonalEdgeStyle;rounded=0;orthogonalLoop=1;jettySize=auto;html=1;exitX=1;exitY=0.5;exitDx=0;exitDy=0;" parent="1" source="WbQk5H_e2WWCLxe1NhMA-15" target="e1Ec5Xwr15tqVegTzRyW-6" edge="1">
          <mxGeometry relative="1" as="geometry" />
        </mxCell>
        <mxCell id="WbQk5H_e2WWCLxe1NhMA-15" value="erp_cust_az12" style="rounded=0;whiteSpace=wrap;html=1;strokeColor=#d79b00;fontSize=15;fontStyle=1;fillColor=#ffe6cc;" parent="1" vertex="1">
          <mxGeometry x="234" y="420" width="140" height="40" as="geometry" />
        </mxCell>
        <mxCell id="e1Ec5Xwr15tqVegTzRyW-14" style="edgeStyle=orthogonalEdgeStyle;rounded=0;orthogonalLoop=1;jettySize=auto;html=1;exitX=1;exitY=0.5;exitDx=0;exitDy=0;entryX=0;entryY=0.5;entryDx=0;entryDy=0;" parent="1" source="WbQk5H_e2WWCLxe1NhMA-16" target="e1Ec5Xwr15tqVegTzRyW-7" edge="1">
          <mxGeometry relative="1" as="geometry" />
        </mxCell>
        <mxCell id="WbQk5H_e2WWCLxe1NhMA-16" value="erp_loc_a101" style="rounded=0;whiteSpace=wrap;html=1;strokeColor=#d79b00;fontSize=15;fontStyle=1;fillColor=#ffe6cc;" parent="1" vertex="1">
          <mxGeometry x="234" y="480" width="140" height="40" as="geometry" />
        </mxCell>
        <mxCell id="e1Ec5Xwr15tqVegTzRyW-15" style="edgeStyle=orthogonalEdgeStyle;rounded=0;orthogonalLoop=1;jettySize=auto;html=1;entryX=0;entryY=0.5;entryDx=0;entryDy=0;" parent="1" source="WbQk5H_e2WWCLxe1NhMA-17" target="e1Ec5Xwr15tqVegTzRyW-8" edge="1">
          <mxGeometry relative="1" as="geometry" />
        </mxCell>
        <mxCell id="WbQk5H_e2WWCLxe1NhMA-17" value="erp_px_cat_g1v2" style="rounded=0;whiteSpace=wrap;html=1;strokeColor=#d79b00;fontSize=15;fontStyle=1;fillColor=#ffe6cc;" parent="1" vertex="1">
          <mxGeometry x="234" y="540" width="140" height="40" as="geometry" />
        </mxCell>
        <mxCell id="WbQk5H_e2WWCLxe1NhMA-26" value="" style="verticalLabelPosition=bottom;html=1;verticalAlign=top;align=center;strokeColor=none;fillColor=#00BEF2;shape=mxgraph.azure.cloud_services_configuration_file;pointerEvents=1;" parent="1" vertex="1">
          <mxGeometry x="110" y="330" width="30" height="30" as="geometry" />
        </mxCell>
        <mxCell id="WbQk5H_e2WWCLxe1NhMA-27" value="" style="verticalLabelPosition=bottom;html=1;verticalAlign=top;align=center;strokeColor=none;fillColor=#00BEF2;shape=mxgraph.azure.cloud_services_configuration_file;pointerEvents=1;" parent="1" vertex="1">
          <mxGeometry x="110" y="510" width="30" height="30" as="geometry" />
        </mxCell>
        <mxCell id="e1Ec5Xwr15tqVegTzRyW-1" value="" style="rounded=1;whiteSpace=wrap;html=1;fillColor=none;strokeColor=#6c8ebf;dashed=1;fillStyle=hatch;" parent="1" vertex="1">
          <mxGeometry x="450" y="200" width="160" height="400" as="geometry" />
        </mxCell>
        <mxCell id="e1Ec5Xwr15tqVegTzRyW-2" value="Bronze Layer" style="rounded=1;whiteSpace=wrap;html=1;strokeColor=#6c8ebf;fontSize=15;fontStyle=1;fillColor=#dae8fc;" parent="1" vertex="1">
          <mxGeometry x="450" y="150" width="160" height="40" as="geometry" />
        </mxCell>
        <mxCell id="kmYfXPGBIqyy0O1JUdQS-9" style="edgeStyle=orthogonalEdgeStyle;rounded=1;orthogonalLoop=1;jettySize=auto;html=1;entryX=0;entryY=0.5;entryDx=0;entryDy=0;jumpStyle=gap;curved=0;" edge="1" parent="1" source="e1Ec5Xwr15tqVegTzRyW-3" target="kmYfXPGBIqyy0O1JUdQS-2">
          <mxGeometry relative="1" as="geometry" />
        </mxCell>
        <mxCell id="e1Ec5Xwr15tqVegTzRyW-3" value="crm_cust_info" style="rounded=0;whiteSpace=wrap;html=1;strokeColor=#6c8ebf;fontSize=15;fontStyle=1;fillColor=#dae8fc;" parent="1" vertex="1">
          <mxGeometry x="460" y="240" width="140" height="40" as="geometry" />
        </mxCell>
        <mxCell id="kmYfXPGBIqyy0O1JUdQS-13" style="edgeStyle=orthogonalEdgeStyle;rounded=1;orthogonalLoop=1;jettySize=auto;html=1;entryX=0;entryY=0.5;entryDx=0;entryDy=0;jumpStyle=gap;curved=0;" edge="1" parent="1" source="e1Ec5Xwr15tqVegTzRyW-4" target="kmYfXPGBIqyy0O1JUdQS-3">
          <mxGeometry relative="1" as="geometry">
            <Array as="points">
              <mxPoint x="620" y="316" />
              <mxPoint x="620" y="525" />
            </Array>
          </mxGeometry>
        </mxCell>
        <mxCell id="e1Ec5Xwr15tqVegTzRyW-4" value="crm_prd_info" style="rounded=0;whiteSpace=wrap;html=1;strokeColor=#6c8ebf;fontSize=15;fontStyle=1;fillColor=#dae8fc;" parent="1" vertex="1">
          <mxGeometry x="460" y="296" width="140" height="40" as="geometry" />
        </mxCell>
        <mxCell id="kmYfXPGBIqyy0O1JUdQS-8" style="edgeStyle=orthogonalEdgeStyle;rounded=1;orthogonalLoop=1;jettySize=auto;html=1;entryX=0;entryY=0.5;entryDx=0;entryDy=0;jumpStyle=gap;curved=0;" edge="1" parent="1" source="e1Ec5Xwr15tqVegTzRyW-5" target="kmYfXPGBIqyy0O1JUdQS-1">
          <mxGeometry relative="1" as="geometry">
            <Array as="points">
              <mxPoint x="650" y="380" />
              <mxPoint x="650" y="280" />
            </Array>
          </mxGeometry>
        </mxCell>
        <mxCell id="e1Ec5Xwr15tqVegTzRyW-5" value="crm_sales_details" style="rounded=0;whiteSpace=wrap;html=1;strokeColor=#6c8ebf;fontSize=15;fontStyle=1;fillColor=#dae8fc;" parent="1" vertex="1">
          <mxGeometry x="460" y="360" width="140" height="40" as="geometry" />
        </mxCell>
        <mxCell id="kmYfXPGBIqyy0O1JUdQS-11" style="edgeStyle=orthogonalEdgeStyle;rounded=1;orthogonalLoop=1;jettySize=auto;html=1;entryX=0;entryY=0.5;entryDx=0;entryDy=0;jumpStyle=gap;curved=0;" edge="1" parent="1" source="e1Ec5Xwr15tqVegTzRyW-6" target="kmYfXPGBIqyy0O1JUdQS-2">
          <mxGeometry relative="1" as="geometry" />
        </mxCell>
        <mxCell id="e1Ec5Xwr15tqVegTzRyW-6" value="erp_cust_az12" style="rounded=0;whiteSpace=wrap;html=1;strokeColor=#6c8ebf;fontSize=15;fontStyle=1;fillColor=#dae8fc;" parent="1" vertex="1">
          <mxGeometry x="460" y="420" width="140" height="40" as="geometry" />
        </mxCell>
        <mxCell id="kmYfXPGBIqyy0O1JUdQS-10" style="edgeStyle=orthogonalEdgeStyle;rounded=1;orthogonalLoop=1;jettySize=auto;html=1;entryX=0;entryY=0.5;entryDx=0;entryDy=0;jumpStyle=gap;curved=0;" edge="1" parent="1" source="e1Ec5Xwr15tqVegTzRyW-7" target="kmYfXPGBIqyy0O1JUdQS-2">
          <mxGeometry relative="1" as="geometry" />
        </mxCell>
        <mxCell id="e1Ec5Xwr15tqVegTzRyW-7" value="erp_loc_a101" style="rounded=0;whiteSpace=wrap;html=1;strokeColor=#6c8ebf;fontSize=15;fontStyle=1;fillColor=#dae8fc;" parent="1" vertex="1">
          <mxGeometry x="460" y="480" width="140" height="40" as="geometry" />
        </mxCell>
        <mxCell id="kmYfXPGBIqyy0O1JUdQS-12" style="edgeStyle=orthogonalEdgeStyle;rounded=1;orthogonalLoop=1;jettySize=auto;html=1;entryX=0;entryY=0.5;entryDx=0;entryDy=0;jumpStyle=gap;curved=0;" edge="1" parent="1" source="e1Ec5Xwr15tqVegTzRyW-8" target="kmYfXPGBIqyy0O1JUdQS-3">
          <mxGeometry relative="1" as="geometry" />
        </mxCell>
        <mxCell id="e1Ec5Xwr15tqVegTzRyW-8" value="erp_px_cat_g1v2" style="rounded=0;whiteSpace=wrap;html=1;strokeColor=#6c8ebf;fontSize=15;fontStyle=1;fillColor=#dae8fc;" parent="1" vertex="1">
          <mxGeometry x="460" y="540" width="140" height="40" as="geometry" />
        </mxCell>
        <mxCell id="kmYfXPGBIqyy0O1JUdQS-1" value="fact_orders" style="rounded=0;whiteSpace=wrap;html=1;strokeColor=#d6b656;fontSize=15;fontStyle=1;fillColor=#fff2cc;" vertex="1" parent="1">
          <mxGeometry x="674" y="260" width="140" height="40" as="geometry" />
        </mxCell>
        <mxCell id="kmYfXPGBIqyy0O1JUdQS-2" value="dim_customers" style="rounded=0;whiteSpace=wrap;html=1;strokeColor=#d6b656;fontSize=15;fontStyle=1;fillColor=#fff2cc;" vertex="1" parent="1">
          <mxGeometry x="674" y="400" width="140" height="40" as="geometry" />
        </mxCell>
        <mxCell id="kmYfXPGBIqyy0O1JUdQS-3" value="dim_products" style="rounded=0;whiteSpace=wrap;html=1;strokeColor=#d6b656;fontSize=15;fontStyle=1;fillColor=#fff2cc;" vertex="1" parent="1">
          <mxGeometry x="674" y="505" width="140" height="40" as="geometry" />
        </mxCell>
        <mxCell id="kmYfXPGBIqyy0O1JUdQS-5" value="Data Flow Diagram" style="text;html=1;align=left;verticalAlign=middle;whiteSpace=wrap;rounded=0;fontSize=27;fontStyle=1" vertex="1" parent="1">
          <mxGeometry x="10" y="50" width="390" height="30" as="geometry" />
        </mxCell>
        <mxCell id="kmYfXPGBIqyy0O1JUdQS-6" value="" style="endArrow=none;html=1;rounded=0;" edge="1" parent="1">
          <mxGeometry width="50" height="50" relative="1" as="geometry">
            <mxPoint x="14.5" y="680" as="sourcePoint" />
            <mxPoint x="840" y="680" as="targetPoint" />
          </mxGeometry>
        </mxCell>
      </root>
    </mxGraphModel>
  </diagram>
</mxfile>
